PathFileType  4	(X/Y/Z) C:\Users\antoi\Documents\MyRepositories\mobilecap\ResultsAnalysis
DataRate	CameraRate	NumFrames	NumMarkers	Units	OrigDataRate	OrigDataStartFrame	OrigNumFrames
100.0	100.0	7	51	mm	100.0	18	139
Frame#	Time	r_knee			r_shank_antsup			r_ankle			r_calc			r_5meta			r_toe			L_knee			L_shank_antsup			L_ankle			L_calc			L_5meta			L_toe			r_sh2			r_sh3			r_sh4			L_sh2			L_sh3			r_thigh1			r_thigh2			r_thigh3			r_thigh4			r_thigh5			L_thigh1			L_thigh2			L_thigh3			L_thigh4			r.ASIS			r.PSIS			L.ASIS			L.PSIS			C7			R_Shoulder			L_Shoulder			R_Sternum			L_Sternum			R_humerus			R_elbow_med			R_elbow_lat			R_forearm			R_wrist_radius			R_wrist_ulna			L_humerus			L_elbow_med			L_elbow_lat			L_forearm			L_wrist_radius			L_wrist_ulna			R_HJC			L_HJC			R_HJC_reg			L_HJC_reg			
		X1	Y1	Z1	X2	Y2	Z2	X3	Y3	Z3	X4	Y4	Z4	X5	Y5	Z5	X6	Y6	Z6	X7	Y7	Z7	X8	Y8	Z8	X9	Y9	Z9	X10	Y10	Z10	X11	Y11	Z11	X12	Y12	Z12	X13	Y13	Z13	X14	Y14	Z14	X15	Y15	Z15	X16	Y16	Z16	X17	Y17	Z17	X18	Y18	Z18	X19	Y19	Z19	X20	Y20	Z20	X21	Y21	Z21	X22	Y22	Z22	X23	Y23	Z23	X24	Y24	Z24	X25	Y25	Z25	X26	Y26	Z26	X27	Y27	Z27	X28	Y28	Z28	X29	Y29	Z29	X30	Y30	Z30	X31	Y31	Z31	X32	Y32	Z32	X33	Y33	Z33	X34	Y34	Z34	X35	Y35	Z35	X36	Y36	Z36	X37	Y37	Z37	X38	Y38	Z38	X39	Y39	Z39	X40	Y40	Z40	X41	Y41	Z41	X42	Y42	Z42	X43	Y43	Z43	X44	Y44	Z44	X45	Y45	Z45	X46	Y46	Z46	X47	Y47	Z47	X48	Y48	Z48	X49	Y49	Z49	X50	Y50	Z50	X51	Y51	Z51	

18	0.17000000	81.60492	528.75045	-55.31494	120.86967	456.05780	-53.77422	132.44006	94.60009	-98.34301	71.56281	53.77141	-143.51115	280.25561	37.17076	-82.27761	309.37289	68.85181	-141.04718	12.25314	509.99811	-351.43190	-50.02258	413.00115	-362.02075	-348.42115	268.51709	-313.77221	-411.35851	316.35138	-269.57744	-320.48098	93.83124	-270.66464	-362.09430	93.56362	-329.05095	140.88998	344.99791	-57.35884	50.34365	441.99572	-21.35435	61.71647	327.50571	-33.95719	-97.20743	489.42011	-366.65582	-195.11582	420.97621	-354.89986	112.32081	854.56259	-18.09537	136.47623	747.30702	-34.38866	89.70073	708.04317	-6.07997	3.69170	823.81796	-5.52681	32.52156	712.38962	-13.45585	65.61421	830.33465	-364.41861	89.54370	695.74140	-370.27465	-48.34428	808.43361	-352.91689	-19.04476	673.22527	-361.53793	100.16452	1045.55463	-64.09526	-102.21319	1080.22720	-131.15564	81.94233	1014.89148	-322.60424	-109.01419	1069.75069	-234.75551	-112.65360	1580.31830	-195.64882	-48.73415	1529.82398	-19.21490	-43.49002	1550.41159	-356.00991	40.33095	1510.47741	-162.43267	41.58289	1510.02488	-216.40761	-71.10675	1259.23901	69.79743	-118.34426	1169.82460	2.30892	-97.98431	1176.42670	83.19805	-41.23852	1027.16596	101.34938	-8.18231	914.71861	92.87567	-50.37337	919.11173	114.45614	-3.04294	1300.13186	-459.14574	-46.87102	1197.47817	-416.93943	-10.57096	1210.78756	-475.79148	104.22224	1077.50174	-472.13654	168.84745	1004.78051	-449.35114	141.78337	985.15693	-471.28268	12.48026	968.37132	-56.21835	-2.26193	942.46662	-284.65666	21.96194	965.08829	-88.13506	10.73887	947.78735	-259.12405	
19	0.18000000	86.09743	529.45841	-54.45322	124.63507	456.24245	-52.97249	132.37557	94.71997	-98.34985	71.59512	53.83453	-143.56149	280.38684	36.95473	-82.07736	309.42746	68.25063	-141.05049	40.16175	512.83985	-351.68842	-23.47241	416.29127	-360.58718	-323.47995	278.13294	-313.81559	-384.87317	326.73337	-268.63380	-298.25967	100.87257	-273.26623	-341.09843	102.96462	-330.82728	143.34774	344.92487	-56.72266	53.79132	442.95617	-21.22601	63.76094	328.31772	-34.03903	-67.81463	493.09842	-367.44977	-166.91551	426.41417	-355.62961	121.77861	854.83149	-16.60621	144.24278	747.15350	-32.80171	96.42969	708.56003	-4.70493	12.37001	825.81914	-4.75679	39.14750	713.58333	-12.69809	82.94275	833.54715	-363.53231	111.18089	699.63561	-369.72814	-30.45070	807.97624	-352.46961	3.39357	673.79133	-361.47090	112.48178	1047.12248	-63.32728	-89.83197	1081.88232	-130.29494	93.88412	1016.56558	-321.88774	-96.72432	1070.81113	-233.74481	-100.01203	1582.03834	-194.89618	-35.51969	1531.79164	-18.58167	-30.76587	1551.99536	-355.31196	52.90980	1512.09898	-161.88492	54.12712	1511.56773	-215.79483	-55.66882	1261.33185	71.40794	-102.70498	1171.21321	4.52255	-81.81274	1178.26898	85.23841	-22.30505	1029.82320	102.65924	13.20686	918.30702	93.69200	-29.48952	921.59433	115.65232	7.18838	1300.81650	-457.50010	-38.03066	1199.23240	-414.48241	-1.75134	1211.49930	-473.47365	109.38297	1075.38866	-470.70601	172.01830	1000.75717	-448.33402	143.99065	982.03342	-470.02210	24.97248	969.93181	-55.37261	9.95831	943.92439	-283.78270	34.06722	967.46870	-86.93606	22.68044	949.17176	-257.85660	
20	0.19000000	90.49229	530.14249	-53.69182	128.23301	456.41631	-52.26845	132.32451	94.83804	-98.41062	71.53886	53.95284	-143.58008	280.47353	36.76589	-81.83456	309.46503	67.73246	-140.98761	67.63202	516.31085	-351.75318	2.78575	419.98408	-359.11800	-298.10218	286.60608	-313.42318	-358.95696	334.66817	-267.18770	-272.51317	107.92269	-276.10833	-316.29218	111.66209	-333.06588	145.70103	344.85727	-56.05485	57.14945	443.91533	-21.11099	65.71735	329.15125	-34.07507	-39.07855	497.11204	-367.78901	-139.10691	431.70113	-356.12968	130.95334	855.03534	-15.30404	151.81894	746.97196	-31.45146	102.93730	709.00163	-3.54850	20.79843	827.70211	-4.13602	45.75859	714.81579	-12.18660	100.55709	837.19194	-362.36742	132.96007	704.05559	-368.68066	-12.20458	808.09151	-352.39575	26.08493	675.03102	-361.49696	124.64083	1048.49209	-62.58945	-77.56564	1083.44901	-129.42678	105.92479	1018.41513	-321.24693	-84.49506	1071.95144	-232.76399	-87.46634	1583.70442	-194.20659	-22.38955	1533.65430	-18.01652	-18.13720	1553.43296	-354.72490	65.35590	1513.62265	-161.41233	66.53466	1513.00664	-215.27529	-40.15802	1263.36973	73.00685	-87.09323	1172.49312	6.83090	-65.52232	1180.03759	87.31790	-3.18991	1032.49129	103.91214	34.67684	921.88124	94.40922	-8.34335	924.14536	116.77545	17.26346	1301.37094	-455.90703	-29.32465	1200.83379	-412.08618	6.91323	1212.10075	-471.21890	114.31743	1073.26567	-469.32956	174.88282	996.81425	-447.32018	145.88954	978.99688	-468.74047	37.33343	971.28064	-54.67954	22.17201	945.52520	-283.10862	46.07531	969.67147	-85.94100	34.61783	950.65892	-256.81446	
21	0.20000000	94.89901	530.79469	-53.06844	131.72462	456.58118	-51.71715	132.29993	94.95884	-98.52657	71.43575	54.10488	-143.58587	280.52453	36.60362	-81.58616	309.48745	67.27363	-140.91254	94.60794	520.31051	-351.58336	28.91026	424.15415	-357.75981	-272.27258	293.73937	-312.66030	-333.61491	340.14799	-265.46417	-243.54001	114.70046	-279.01409	-287.97814	119.33634	-335.65979	148.00053	344.79648	-55.40667	60.48486	444.88031	-21.03640	67.63659	330.01639	-34.11046	-11.19067	501.48854	-367.61276	-111.82809	436.79779	-356.25838	140.04316	855.23988	-14.21001	159.45690	746.82876	-30.34922	109.48050	709.44338	-2.74156	29.21420	829.47604	-3.63381	52.62659	716.12493	-11.95811	118.35858	841.21061	-361.00653	154.78830	708.94942	-367.23212	6.34891	808.73682	-352.64942	48.92282	676.91755	-361.62825	136.62597	1049.72702	-61.79982	-65.43006	1084.92978	-128.59320	118.12483	1020.45820	-320.59388	-72.29696	1073.17367	-231.87048	-75.01528	1585.30271	-193.57264	-9.36404	1535.40566	-17.51345	-5.62794	1554.73012	-354.24389	77.69239	1515.05194	-160.99939	78.81488	1514.34977	-214.83562	-24.56129	1265.34395	74.57336	-71.49840	1173.66639	9.21358	-49.08203	1181.71859	89.41172	16.09570	1035.16593	105.09292	56.15433	925.43318	95.01389	13.05300	926.76283	117.80904	27.15914	1301.79692	-454.35332	-20.74928	1202.29614	-409.75765	15.44337	1212.60872	-469.03001	119.05553	1071.15224	-467.99988	177.47689	992.96064	-446.33285	147.59278	976.03800	-467.48075	49.53333	972.46680	-54.09721	34.45959	947.27436	-282.59394	57.98563	971.71280	-85.09543	46.62670	952.26658	-255.94770	
22	0.21000000	99.40502	531.40550	-52.60109	135.17432	456.73480	-51.34573	132.29862	95.08644	-98.69027	71.33751	54.26594	-143.59739	280.55496	36.46251	-81.35346	309.50151	66.85063	-140.85779	121.05571	524.71461	-351.13393	54.96927	428.76502	-356.54703	-245.94474	299.35146	-311.64326	-308.64933	343.25416	-263.68857	-211.91617	120.85179	-281.83249	-256.75518	125.73012	-338.45362	150.28384	344.73852	-54.81394	63.83818	445.85617	-21.04830	69.54970	330.91564	-34.21417	15.75274	506.13930	-366.91436	-85.11818	441.57294	-355.92633	149.15591	855.47247	-13.31260	167.34010	746.74711	-29.48396	116.27441	709.94087	-2.30767	37.80478	831.13758	-3.19616	59.91765	717.49311	-11.95887	136.13933	845.50240	-359.57125	176.50700	714.22990	-365.50970	25.06096	809.82273	-353.14224	71.71786	679.36541	-361.85918	148.43229	1050.87911	-60.89103	-53.43787	1086.31864	-127.83954	130.51244	1022.67761	-319.85251	-60.11524	1074.45653	-231.11391	-62.65233	1586.82230	-192.98264	3.53850	1537.04424	-17.06535	6.73951	1555.89801	-353.85622	89.94694	1516.39140	-160.63205	90.98722	1515.60573	-214.46006	-8.87664	1267.24879	76.08844	-55.89837	1174.73624	11.63969	-32.47605	1183.30905	91.49402	35.53724	1037.84875	106.18804	77.60332	928.96862	95.50237	34.69217	929.44321	118.73173	36.84996	1302.10431	-452.83143	-12.30259	1203.64403	-407.49907	23.85103	1213.03803	-466.90605	123.62157	1069.07236	-466.70723	179.84226	989.20586	-445.39705	149.21423	973.15090	-466.29065	61.54856	973.53301	-53.58340	46.87643	949.14739	-282.19172	69.79971	973.60651	-84.33519	58.75383	953.98450	-255.19385	
23	0.22000000	104.08939	531.97287	-52.28982	138.67424	456.87305	-51.14920	132.31914	95.22178	-98.89264	71.29765	54.41437	-143.62821	280.58230	36.33470	-81.14490	309.52141	66.44205	-140.83595	146.94804	529.38480	-350.37062	80.95619	433.65323	-355.43841	-219.08285	303.28430	-310.51521	-283.75605	344.11206	-262.02747	-178.37330	126.01879	-284.47179	-223.38444	130.66374	-341.28592	152.59863	344.67769	-54.30083	67.26091	446.84829	-21.18601	71.50654	331.84688	-34.44030	41.75335	510.87104	-365.73795	-58.93554	445.82667	-355.11879	158.29547	855.72173	-12.56396	175.53772	746.72061	-28.84453	123.45201	710.51219	-2.17746	46.66543	832.67359	-2.76685	67.67049	718.86357	-12.08182	153.64197	849.93286	-358.19068	197.93228	719.78980	-363.64411	43.72515	811.23591	-353.76395	94.24876	682.24579	-362.17697	160.06003	1051.97674	-59.82085	-41.59227	1087.60112	-127.20915	143.08967	1025.02309	-318.96738	-47.94783	1075.76041	-230.53347	-50.36530	1588.25408	-192.42319	16.30484	1538.57095	-16.66364	18.94756	1556.95006	-353.54351	102.14476	1517.64489	-160.29835	103.07808	1516.78160	-214.13320	6.88646	1269.08192	77.53696	-40.27097	1175.70897	14.07209	-15.70931	1184.81495	93.54042	55.11536	1040.54500	107.18597	99.02559	932.50840	95.87425	56.56760	932.18255	119.51710	46.31768	1302.30646	-451.34323	-3.98685	1204.90397	-405.30809	32.13648	1213.39739	-464.84300	128.03552	1067.05117	-465.44141	182.02289	985.56523	-444.52948	150.83813	970.34175	-465.20110	73.36212	974.50584	-53.10369	59.45041	951.09432	-281.85822	81.52256	975.35913	-83.59851	71.01206	955.77802	-254.48733	
24	0.23000000	109.02605	532.50281	-52.12550	142.34303	456.98898	-51.10018	132.37233	95.36310	-99.12817	71.36013	54.53508	-143.68567	280.62143	36.21412	-80.96313	309.56559	66.03221	-140.84752	172.25235	534.18230	-349.27888	106.84959	438.56251	-354.37062	-191.68311	305.42344	-309.41325	-258.63013	342.85549	-260.56388	-143.63964	129.91116	-286.89993	-188.61435	134.04007	-344.02561	155.01371	344.60804	-53.88847	70.83442	447.85879	-21.46471	73.59190	332.80393	-34.80301	66.89144	515.43309	-364.16674	-33.19062	449.34117	-353.89458	167.40350	855.95097	-11.89942	183.99743	746.73120	-28.44123	131.04346	711.13194	-2.24065	55.78886	834.06610	-2.31453	75.80947	720.16407	-12.22685	170.64193	854.35067	-356.96122	218.90492	725.51649	-361.74531	62.14808	812.86641	-354.41158	116.32712	685.41081	-362.57142	171.50619	1053.01896	-58.57830	-29.88517	1088.75690	-126.73705	155.83552	1027.42037	-317.90957	-35.79997	1077.03514	-230.15495	-38.13959	1589.58849	-191.88269	28.93061	1539.98701	-16.29868	30.98780	1557.89822	-353.28466	114.30286	1518.81315	-159.98891	115.11448	1517.87988	-213.84277	22.70757	1270.84406	78.90919	-24.60022	1176.59460	16.47193	1.19192	1186.24673	95.52975	74.80463	1043.26117	108.07837	120.45048	936.08600	96.12725	78.66641	934.97873	120.13966	55.55697	1302.41545	-449.89963	4.18925	1206.09438	-403.17929	40.28989	1213.69142	-462.83636	132.31451	1065.11167	-464.19382	184.06178	982.06168	-443.73236	152.50282	967.63183	-464.21334	84.96171	975.39021	-52.63736	72.18017	953.04883	-281.56087	93.15614	976.96828	-82.83903	83.37996	957.59520	-253.77175	
